<svg xmlns="http://www.w3.org/2000/svg" fill="none" viewBox="0 0 1024 1024" height="1024" width="1024">
<rect fill="white" height="1024" width="1024"></rect>
<path fill="#B4C7D6" d="M299.429 205.63C317.845 190.946 336.875 176.064 358.912 167.285C355.334 174.791 351.998 182.43 349.254 190.309C345.72 200.801 342.998 211.6 341.879 222.641C339.486 240.529 340.935 258.593 340.474 276.57C339.925 323.387 341.242 370.205 340.781 417.023C340.518 421.61 341.769 427.295 337.248 430.28C328.336 436.294 320.72 443.932 313.147 451.483C306.102 447.005 297.476 446.303 290.298 442.111C287.884 436.36 289.135 429.819 288.784 423.761C288.038 356.399 288.674 289.059 288.564 221.697C287.445 214.212 294.754 210.042 299.429 205.63Z"></path>
<path fill="#B4C7D6" d="M749.366 228.699C771.052 248.563 787.909 273.255 802.768 298.497C848.247 378.129 859.573 477.251 829.546 564.258C805.841 633.069 759.682 694.57 698.202 733.925C676.341 748.039 652.899 760.528 627.657 767.31C624.914 761.998 624.497 755.874 622.719 750.255C620.019 741.564 623.816 732.74 625.133 724.136C630.204 701.66 631.169 678.284 627.153 655.567C654.633 634.495 675.243 604.337 683.255 570.513C686.437 557.41 686.833 543.889 687.491 530.5C725.617 500.364 748.62 452.141 747.171 403.48C759.638 388.489 758.936 366.342 749.695 349.924C748.729 309.559 749.146 269.085 749.366 228.699Z"></path>
<path fill="#D5DFE8" d="M688.04 374.068C692.035 392.483 689.028 411.557 690.037 430.258C691.047 438.643 686.745 449.573 694.361 455.741C692.013 460.175 689.269 464.389 686.547 468.625C688.918 437.194 686.877 405.565 688.04 374.068Z"></path>
<path fill="#FDFDFD" d="M414.794 114.76C476.318 66.2525 572.762 70.9716 628.93 125.669C655.862 150.252 672.982 184.603 677.767 220.643C679.326 234.098 678.843 247.685 678.931 261.227C678.821 301.789 679.04 342.373 678.777 382.936L676.407 383.791C661.108 388.664 645.392 392.088 629.655 395.095C584.681 402.953 538.961 408.001 493.262 406.311C444.974 404.49 396.708 397.839 350.088 384.955C349.012 340.047 350.044 295.095 349.671 250.187C349.32 234.295 350.746 218.338 354.675 202.908C364.267 167.899 385.25 136.073 414.794 114.76ZM522.213 99.5055C521.314 102.271 518.702 105.322 521.094 108.11C523.399 112.236 528.71 111.687 532.727 112.236C550.133 112.675 566.726 118.887 582.31 126.218C609.242 139.234 630.708 162.917 641.046 191.034C638.588 192.57 636.13 194.15 633.671 195.731C625.682 185.393 618.241 174.506 608.386 165.792C579.896 139.98 540.343 124.615 501.713 130.849C484.79 131.485 469.557 139.365 454.149 145.511C442.143 151.832 431.388 160.393 421.993 170.16C416.133 176.723 411.414 184.251 405.027 190.375C403.029 189.607 401.01 188.839 399.013 188.092C398.157 179.379 405.883 173.782 408.846 166.363C408.824 161.556 404.939 157.627 400.922 155.52C395.391 155.41 393.481 161.71 391.067 165.573C385.009 178.501 375.044 189.607 371.818 203.786C368.635 217.592 366.989 231.728 366.199 245.885C365.694 278.743 366.396 311.601 366.067 344.48C365.935 355.016 368.284 365.442 367.735 376.021C369.074 377.514 370.698 378.611 372.586 379.292C405.114 390.025 439.443 393.23 473.42 395.644C530.51 398.454 588.193 395.754 644.097 383.243C650.594 381.618 657.355 380.06 663.061 376.395C665.673 372.18 664.686 366.956 665.037 362.281C664.598 319.832 664.642 277.382 664.686 234.932C664.049 190.946 641.332 147.838 604.545 123.452C580.291 107.846 551.274 97.9252 522.213 99.5055Z"></path>
<path fill="#F1F1F0" d="M501.713 130.849C540.344 124.616 579.896 139.98 608.386 165.792C618.242 174.506 625.682 185.393 633.672 195.731C636.13 194.151 638.589 192.57 641.047 191.034C646.82 205.674 650.419 221.258 650.441 237.061C650.639 282.321 650.727 327.58 650.661 372.839C604.787 372.466 558.891 371.72 512.995 370.71C464.553 371.017 416.024 371.983 367.735 376.022C368.284 365.442 365.936 355.016 366.067 344.481C366.397 311.601 365.694 278.743 366.199 245.885C366.989 231.728 368.635 217.592 371.818 203.786C375.045 189.607 385.01 178.501 391.068 165.573C393.482 161.71 395.391 155.41 400.923 155.52C404.939 157.627 408.824 161.556 408.846 166.363C405.883 173.782 398.157 179.379 399.013 188.093C401.01 188.839 403.03 189.607 405.027 190.375C411.414 184.251 416.133 176.723 421.994 170.16C431.388 160.393 442.143 151.833 454.149 145.511C469.558 139.365 484.791 131.486 501.713 130.849ZM438.851 215.2C438.236 217.965 434.856 221.675 438.28 223.958C449.035 232.101 462.205 237.061 471.687 246.894C478.294 255.082 462.666 262.698 457.42 255.564C454.325 252.843 456.147 248.848 457.596 245.885C445.436 253.765 438.039 268.91 442.582 283.242C446.599 301.504 469.492 310.13 485.581 302.25C499.189 294.963 504.655 276.548 498.267 262.698C491.968 248.014 478.776 237.939 466.09 229.006C457.486 223.606 448.838 217.658 438.851 215.2ZM539.686 244.063C528.623 254.269 519.251 269.788 524.277 285.262C528.294 298.87 543.022 307.387 556.85 305.104C574.519 303.809 587.798 285.02 583.694 267.878C582.004 257.101 572.763 250.626 565.651 243.405C567.649 246.609 570.897 250.823 567.758 254.511C564.247 261.974 550.858 258.637 551.56 250.275C555.05 242.593 564.093 240.09 570.129 234.822C576.67 229.401 586.306 227.667 590.783 220.007C587.996 217.944 584.945 214.585 581.235 217.044C566.046 223.65 552.065 233.088 539.686 244.063ZM480.708 324.836C476.538 331.092 484.132 335.701 488.785 338.379C504.567 346.061 525.419 345.315 539.203 333.791C541.749 332.277 544.097 325.692 539.334 325.714C523.97 341.122 495.897 339.981 480.708 324.836Z"></path>
<path fill="#1E1E1E" d="M539.685 244.063C552.064 233.088 566.046 223.65 581.235 217.044C584.944 214.585 587.995 217.943 590.783 220.007C586.305 227.667 576.669 229.401 570.129 234.822C564.092 240.09 555.049 242.592 551.559 250.275C550.857 258.637 564.246 261.974 567.758 254.511C570.897 250.823 567.648 246.609 565.651 243.405C572.762 250.626 582.003 257.101 583.693 267.878C587.798 285.02 574.518 303.809 556.849 305.104C543.021 307.386 528.293 298.87 524.277 285.262C519.25 269.788 528.623 254.269 539.685 244.063Z"></path>
<path fill="#1E1E1E" d="M313.148 451.483C320.72 443.932 328.337 436.294 337.248 430.28C342.582 432.848 340.431 438.906 340.365 443.493C338.916 457.234 340.738 471.062 339.596 484.846C315.123 508.375 303.095 542.023 298.42 574.991C307.748 583.99 316.199 596.765 312.884 610.329C311.941 615.773 307.77 619.636 303.666 622.928C302.875 629.118 302.59 636.229 297.366 640.553C286.523 651.001 267.669 647.687 258.626 636.493C244.666 620.162 246.576 594.855 258.823 578.13C259.284 534.275 276.317 490.882 306.124 458.638C308.385 456.18 310.777 453.81 313.148 451.483ZM269.644 582.234C258.802 588.797 256.585 603.152 258.384 614.763C259.745 626.659 269.732 639.236 282.704 638.139C289.355 638.6 295.171 632.147 294.359 625.628C294.14 618.56 287.357 614.829 281.914 611.866C282.836 608.156 285.272 605.5 289.289 605.303C294.118 606.576 296.73 611.427 300.373 614.478C309.263 608.486 304.895 595.952 299.232 589.192C292.23 581.4 279.148 574.991 269.644 582.234Z"></path>
<path fill="#FCFDFD" d="M687.337 218.953C688.742 223.343 689.752 227.908 689.488 232.584C688.457 268.449 689.554 304.335 689.225 340.2C689.269 346.544 687.842 353.941 693.461 358.506C693.483 361.667 693.439 364.827 693.527 368.01C691.661 369.546 689.818 371.127 687.996 372.707C687.579 321.478 689.51 270.161 687.337 218.953Z"></path>
<path fill="#B4C7D5" d="M206.277 329.665C223.331 292.527 246.224 257.54 275.746 229.116C277.195 299.77 275.658 370.49 276.492 441.145C276.405 447.313 281.321 452.668 286.787 454.907C293.13 456.575 299.824 456.619 306.124 458.639C276.317 490.882 259.284 534.275 258.823 578.13C246.576 594.855 244.666 620.163 258.626 636.493C267.669 647.687 286.523 651.001 297.366 640.553C302.59 636.229 302.875 629.118 303.665 622.928C307.77 619.636 311.94 615.773 312.884 610.329C316.198 596.765 307.748 583.99 298.42 574.991C303.095 542.024 315.123 508.375 339.596 484.846C340.365 511.668 338.367 538.709 341.747 565.399C345.852 594.197 361.919 619.724 381.058 640.992C385.426 646.194 391.528 650.014 395.106 655.808C392.648 678.679 393.679 701.879 399.079 724.29C402.678 738.14 404.873 753.833 397.893 767.003C386.063 762.525 373.705 759.518 362.16 754.36C328.336 738.271 297.169 716.498 271.005 689.676C242.91 659.43 219.205 624.991 202.589 587.129C168.766 505.632 169.688 410.109 206.277 329.665Z"></path>
<path fill="#43494F" d="M682.947 234.537C683.825 266.122 683.035 297.751 683.298 329.358C683.057 348.475 684.045 367.637 682.771 386.755C682.859 336.03 682.815 285.284 682.947 234.537Z"></path>
<path fill="#181618" d="M783.146 896.547C786.548 895.976 789.028 902.254 784.99 903.175C780.578 904.558 778.559 897.381 783.146 896.547Z"></path>
<path fill="#181618" d="M451.954 898.961C453.249 899.005 455.839 899.093 457.134 899.137C457.398 900.498 457.903 903.241 458.144 904.602C456.147 904.888 454.171 905.195 452.196 905.546C452.108 903.307 452.02 901.112 451.954 898.961Z"></path>
<path fill="#181618" d="M346.62 899.159C347.85 899.137 350.33 899.115 351.581 899.115C351.252 912.767 351.932 926.42 351.822 940.094C345.94 941.872 346.928 936.011 346.796 932.851C346.818 921.613 347.015 910.375 346.62 899.159Z"></path>
<path fill="#181618" d="M603.623 899.093C611.547 898.786 619.536 898.588 627.46 899.4C631.016 904.427 635.098 911.077 631.345 917.179C626.692 924.861 616.529 923.413 608.869 923.457C608.869 928.658 609.066 933.904 608.715 939.128C607.53 939.392 605.181 939.875 604.018 940.116C603.799 926.42 603.733 912.745 603.623 899.093ZM609.023 902.868C609.001 908.356 609.001 913.865 609.066 919.396C614.927 918.737 622.829 920.515 626.648 914.765C629.369 911.253 626.099 907.017 624.958 903.571C619.668 903.044 614.334 902.89 609.023 902.868Z"></path>
<path fill="#181618" d="M419.996 914.501C423.091 907.697 432.332 906.885 438.434 909.848C444.536 911.911 446.313 918.847 446.248 924.664C438.587 925.212 430.927 925.059 423.267 925.015C422.981 930.195 425.44 936.977 431.827 936.341C437.227 937.416 439.992 932.763 441.419 928.417C442.56 928.922 444.865 929.932 446.028 930.436C443.833 942.223 425.747 943.452 419.887 934.058C417.055 927.934 417.955 920.691 419.996 914.501ZM422.608 921.723C429.105 921.766 435.668 922.074 442.055 920.581C439.619 915.972 435.449 910.726 429.5 912.24C424.759 913.053 423.816 917.925 422.608 921.723Z"></path>
<path fill="#181618" d="M359.219 939.589C359.087 928.658 357.595 917.157 361.458 906.709C362.182 908.07 363.631 910.792 364.377 912.175C369.206 906.27 378.973 906.885 382.683 913.623C385.119 922.227 383.429 931.336 383.758 940.182C382.573 939.831 380.202 939.172 379.017 938.821C378.007 930.919 379.676 922.71 377.678 914.962C374.035 908.882 364.07 912.987 364.157 919.396C363.718 926.266 364.048 933.136 364.07 940.028C362.862 939.918 360.448 939.699 359.219 939.589Z"></path>
<path fill="#181618" d="M558.913 912.921C564.159 905.7 575.375 907.982 579.918 914.787C579.545 911.692 576.845 904.975 583.672 907.324C583.847 918.803 583.891 930.305 583.584 941.806C583.847 955.327 558.013 955.239 557.925 942.486C563.391 944.264 568.417 950.476 574.629 947.271C580.313 945.603 578.645 938.667 579.655 934.277C575.463 936.933 570.765 941.608 565.366 939.128C554.501 936.253 552.943 920.779 558.913 912.921ZM564.247 913.909C558.013 919.681 558.979 933.048 567.78 935.967C574.124 936.516 579.326 930.129 578.448 924.027C579.721 916.828 570.656 908.531 564.247 913.909Z"></path>
<path fill="#181618" d="M663.15 909.76C673.466 904.185 686.438 914.962 683.167 926.112C683.98 937.372 669.822 943.694 661.021 937.921C651.956 931.227 653.031 914.94 663.15 909.76ZM663.764 914.567C659.001 919.374 658.76 928.527 663.084 933.663C669.471 940.314 680.182 932.236 679.063 924.203C680.468 916.389 670.217 908.882 663.764 914.567Z"></path>
<path fill="#181618" d="M811.284 921.722C806.565 911.582 820.591 904.69 828.47 909.497C831.631 910.858 836.987 916.455 831.697 918.869C828.712 915.686 825.705 910.506 820.481 912.284C816.618 912.877 816.157 916.499 815.784 919.703C822.017 922.249 831.148 921.986 834.572 928.505C837.865 943.496 808.431 944.703 810.67 929.405C815.52 930.326 817.123 937.043 822.522 936.45C826.758 937.197 829.195 933.377 830.951 930.239C825.244 925.388 816.201 927.363 811.284 921.722Z"></path>
<path fill="white" d="M422.608 921.722C423.815 917.925 424.759 913.053 429.5 912.24C435.448 910.726 439.619 915.972 442.055 920.581C435.668 922.074 429.105 921.766 422.608 921.722Z"></path>
<path fill="white" d="M757.267 913.843C767.562 905.897 777.592 921.854 772.105 930.853C769.669 938.119 758.672 938.316 755.117 931.907C752.022 926.485 752.219 918.035 757.267 913.843Z"></path>
<path fill="white" d="M268.261 920.91C273.902 920.779 279.565 920.515 285.206 919.967C287.335 922.974 292.12 926.442 288.828 930.48C284.943 937.921 275.065 934.782 268.349 935.199C268.217 930.414 268.217 925.651 268.261 920.91Z"></path>
<path fill="white" d="M692.166 928.307C696.776 925.125 702.483 924.554 707.794 923.325C707.685 927.649 707.948 932.697 703.053 934.563C698.795 939.084 689.269 934.716 692.166 928.307Z"></path>
<path fill="#0A0A0A" d="M302.217 901.814C310.294 895.098 326.032 897.71 327.985 909.343C326.822 909.672 324.495 910.353 323.332 910.704C322.213 908.311 321.115 905.963 320.018 903.636C314.355 902.627 305.334 900.849 303.687 908.531C302.239 915.094 311.15 915.357 315.43 916.367C321.796 916.85 329.192 921.196 328.117 928.592C328.468 936.428 319.71 939.896 313.148 940.116C304.346 941.301 294.952 934.014 296.444 924.576C301.58 925.981 301.778 932.982 306.936 934.475C314.179 938.623 326.207 932.982 322.542 923.632C316.791 921.635 310.733 920.822 304.961 919.066C297.805 916.981 296.313 906.073 302.217 901.814Z"></path>
<path fill="#FBFBFB" d="M469.579 932.126C465.782 924.971 467.955 912.131 477.722 911.692C481.98 910.616 484.483 914.984 487.248 917.377C486.831 923.083 488.916 930.349 483.802 934.563C479.786 938.821 472.059 937.241 469.579 932.126Z"></path>
<path fill="#0C0C0E" d="M478.732 851.727C490.585 847.951 503.118 849.641 515.344 849.4C525.901 849.268 536.547 849.334 546.885 851.705C524.211 852.978 501.406 852.956 478.732 851.727Z"></path>
<path fill="#060606" d="M511.217 898.325C514.092 898.742 516.726 899.663 517.121 903.088L514.378 903.746C515.475 905.809 516.748 907.894 516.331 910.419C516.397 920.054 516.221 929.712 516.419 939.369C515.234 939.348 512.819 939.304 511.634 939.282C511.722 929.01 511.788 918.737 511.59 908.487L515.541 908.004C513.368 905.041 510.317 902.363 511.217 898.325Z"></path>
<path fill="#060606" d="M781.653 909.08C782.772 909.014 784.989 908.882 786.109 908.794C785.67 918.759 786.965 928.944 785.231 938.799C784.001 938.909 781.543 939.128 780.314 939.238C782.509 929.317 781.324 919.111 781.653 909.08Z"></path>
<path fill="#080808" d="M697.127 908.663C702.944 907.28 712.316 909.848 711.855 917.179C712.228 924.729 711.438 932.39 713.304 939.83C711.921 939.874 709.155 939.918 707.772 939.962C707.75 938.492 707.707 935.572 707.685 934.102C704.809 935.924 703.053 940.357 699.168 940.379C692.298 941.696 684.375 934.277 687.689 927.429C692.123 921.459 700.354 922.03 706.872 920.559C707.026 919.132 707.333 916.323 707.487 914.896C702.066 909.738 695.327 913.557 691.003 917.903L687.162 918.32C689.357 914.194 691.728 908.97 697.127 908.663ZM692.167 928.307C689.269 934.716 698.795 939.084 703.053 934.563C707.948 932.697 707.685 927.649 707.794 923.325C702.483 924.554 696.776 925.125 692.167 928.307Z"></path>
<path fill="#040404" d="M498.75 898.456C500.308 898.325 501.866 898.149 503.447 898.039C502.481 911.692 503.118 925.388 503.096 939.062C501.932 939.128 499.584 939.238 498.42 939.304C498.859 925.695 498.903 912.065 498.75 898.456Z"></path>
<path fill="#FEFEFF" d="M268.262 903.439C275.022 903.702 288.301 900.476 287.577 911.253C284.789 919.374 274.627 915.752 268.174 916.828C268.218 912.328 268.24 907.872 268.262 903.439Z"></path>
<path fill="#FEFEFF" d="M609.023 902.868C614.335 902.89 619.668 903.044 624.958 903.57C626.099 907.016 629.37 911.253 626.648 914.765C622.829 920.515 614.927 918.737 609.067 919.396C609.001 913.865 609.001 908.355 609.023 902.868Z"></path>
<path fill="#FEFEFF" d="M663.764 914.567C670.217 908.882 680.468 916.389 679.063 924.203C680.182 932.236 669.471 940.313 663.084 933.663C658.76 928.527 659.001 919.374 663.764 914.567Z"></path>
<path fill="#1B1C1D" d="M425.11 96.6741C459.571 75.7126 501.515 68.1183 541.287 73.847C598.531 81.9682 650.638 120.577 674.322 173.452C680.621 188.005 684.045 203.501 687.337 218.953C689.51 270.161 687.579 321.478 687.996 372.707L688.04 374.068C686.876 405.565 688.918 437.194 686.547 468.625C680.599 448.586 686.591 426.988 683.365 406.465C682.223 405.412 679.919 403.304 678.777 402.251C678.667 399.31 678.602 396.39 678.536 393.493C669.163 395.82 659.747 397.971 650.375 400.232C628.206 405.455 605.533 408.265 583.035 411.47C572.653 410.921 562.446 412.633 552.218 414.103C522.477 416.452 492.582 415.969 462.841 413.884C433.297 412.457 404.083 406.926 375.198 400.846C367.889 399.2 360.777 396.851 353.6 394.766C356.102 393.778 358.604 392.769 361.085 391.759C358.429 391.276 355.773 390.771 353.139 390.354C352.371 388.994 350.834 386.294 350.088 384.955C396.708 397.839 444.974 404.49 493.263 406.311C538.961 408.002 584.681 402.953 629.655 395.095C645.392 392.088 661.108 388.664 676.407 383.792C677.987 384.538 681.192 386.03 682.772 386.755C684.045 367.637 683.057 348.475 683.299 329.358C683.035 297.751 683.825 266.122 682.948 234.537C683.035 229.335 681.214 224.484 677.767 220.643C672.983 184.603 655.862 150.252 628.931 125.669C572.763 70.9716 476.318 66.2526 414.794 114.76C385.251 136.073 364.267 167.899 354.675 202.908C352.832 198.716 351.032 194.502 349.254 190.309C351.998 182.43 355.334 174.791 358.912 167.285C373.639 138.07 396.884 113.246 425.11 96.6741Z"></path>
<path fill="#868C93" d="M522.214 99.5056C551.275 97.9253 580.291 107.846 604.545 123.452C641.332 147.838 664.049 190.946 664.686 234.932C664.642 277.382 664.598 319.832 665.037 362.281C664.686 366.957 665.674 372.18 663.062 376.395C657.355 380.06 650.595 381.619 644.098 383.243C588.193 395.754 530.511 398.454 473.421 395.644C439.443 393.23 405.115 390.025 372.586 379.292C370.698 378.612 369.074 377.514 367.735 376.022C416.024 371.983 464.553 371.017 512.995 370.71C558.891 371.72 604.787 372.466 650.661 372.839C650.726 327.58 650.639 282.32 650.441 237.061C650.419 221.258 646.819 205.674 641.047 191.034C630.709 162.917 609.242 139.234 582.311 126.218C566.727 118.887 550.133 112.675 532.727 112.236C528.711 111.687 523.399 112.236 521.094 108.11C518.702 105.322 521.314 102.271 522.214 99.5056Z"></path>
<path fill="#B2C7D6" d="M674.321 173.453C681.367 174.221 687.337 178.172 693.263 181.749C707.662 190.397 720.766 201.021 733.408 212.039C736.723 214.168 736.437 218.229 736.437 221.719C736.108 260.393 736.657 299.09 736.328 337.764C727.658 334.34 717.188 333.396 708.957 338.489C701.297 342.747 696.973 350.802 693.461 358.506C687.842 353.941 689.269 346.544 689.225 340.2C689.554 304.336 688.457 268.449 689.488 232.584C689.752 227.908 688.742 223.343 687.337 218.953C684.045 203.501 680.621 188.005 674.321 173.453Z"></path>
<path fill="#12110F" d="M341.879 222.641C342.999 211.6 345.72 200.801 349.254 190.309C351.032 194.502 352.832 198.716 354.676 202.908C350.747 218.339 349.32 234.296 349.671 250.187C350.044 295.095 349.013 340.047 350.088 384.955C350.834 386.294 352.371 388.994 353.139 390.354C355.773 390.771 358.429 391.276 361.085 391.759C358.604 392.769 356.102 393.778 353.6 394.766C352.59 394.656 350.593 394.437 349.605 394.305C349.737 397.29 349.891 400.297 350.066 403.304C348.749 402.404 347.454 401.505 346.181 400.583C345.632 402.317 345.084 404.095 344.535 405.872C344.513 348.124 344.359 290.354 344.623 232.627C344.425 229.138 342.999 225.889 341.879 222.641Z"></path>
<path fill="#1E1F1E" d="M438.851 215.2C448.838 217.658 457.486 223.606 466.09 229.006C478.776 237.939 491.968 248.014 498.267 262.698C504.655 276.548 499.189 294.963 485.581 302.25C469.492 310.13 446.599 301.504 442.582 283.242C438.039 268.91 445.436 253.765 457.596 245.885C456.147 248.848 454.325 252.843 457.42 255.564C462.666 262.698 478.294 255.082 471.687 246.894C462.205 237.061 449.035 232.101 438.28 223.958C434.856 221.675 438.236 217.965 438.851 215.2Z"></path>
<path fill="#131315" d="M677.767 220.643C681.213 224.484 683.035 229.335 682.947 234.537C682.815 285.284 682.859 336.03 682.772 386.755C681.191 386.03 677.987 384.538 676.406 383.792L678.777 382.936C679.04 342.374 678.821 301.789 678.93 261.227C678.843 247.685 679.325 234.098 677.767 220.643Z"></path>
<path fill="#131315" d="M387.028 908.685C388.301 908.926 390.847 909.431 392.121 909.672C396.554 917.881 396.84 928.241 402.985 935.485C405.268 926.815 407.726 918.189 409.373 909.387C410.843 909.233 413.74 908.926 415.189 908.773C412.753 919.462 409.79 930.063 405.532 940.182C402.744 939.106 398.069 940.248 396.862 936.824C393.02 927.649 390.035 918.145 387.028 908.685Z"></path>
<path fill="#191A12" d="M341.879 222.641C342.999 225.889 344.425 229.138 344.623 232.627C344.36 290.354 344.513 348.124 344.535 405.872C345.084 404.095 345.633 402.317 346.181 400.583C347.454 401.505 348.749 402.405 350.066 403.304C351.208 403.919 353.512 405.126 354.676 405.741C353.381 405.521 350.791 405.104 349.496 404.885C349.518 405.96 349.54 408.089 349.54 409.165C349.759 441.825 348.837 474.486 348.969 507.146C349.188 527.537 347.937 548.081 351.23 568.318C350.878 570.206 350.198 574.025 349.847 575.935C343.921 564.06 345.896 550.496 345.589 537.721C345.347 523.608 346.181 509.473 345.04 495.381C343.021 515.311 345.04 535.395 344.403 555.391C344.25 558.858 342.845 562.107 341.748 565.399C338.367 538.709 340.365 511.668 339.597 484.846C340.738 471.062 338.916 457.234 340.365 443.493C340.431 438.906 342.582 432.848 337.248 430.28C341.77 427.295 340.518 421.61 340.782 417.023C341.243 370.205 339.926 323.387 340.475 276.57C340.936 258.593 339.487 240.529 341.879 222.641Z"></path>
<path fill="#1D1C1A" d="M480.708 324.836C495.897 339.981 523.97 341.122 539.334 325.714C544.097 325.692 541.749 332.277 539.202 333.791C525.418 345.315 504.567 346.061 488.785 338.379C484.132 335.701 476.537 331.091 480.708 324.836Z"></path>
<path fill="#1D1D1F" d="M708.957 338.488C717.188 333.396 727.658 334.34 736.328 337.764C741.047 341.495 745.59 345.512 749.695 349.924C758.935 366.342 759.638 388.489 747.171 403.48C748.619 452.141 725.617 500.364 687.491 530.5C686.832 543.889 686.437 557.41 683.255 570.513C675.243 604.337 654.633 634.495 627.152 655.566C631.169 678.284 630.203 701.66 625.133 724.136C623.816 732.74 620.019 741.563 622.719 750.255C624.497 755.874 624.914 761.998 627.657 767.31C630.774 769.615 633.979 772.073 635.669 775.738C646.512 776.441 658.189 776.243 667.693 782.301C677.438 788.14 683.342 798.829 685.471 809.782C695.217 811.559 706.499 812.13 713.94 819.527C718.768 824.356 712.359 829.909 707.75 831.467C684.769 839.984 660.142 842.354 635.998 845.339C606.367 848.127 576.647 851.375 546.884 851.705C536.546 849.334 525.901 849.268 515.343 849.4C503.118 849.641 490.585 847.951 478.732 851.726C448.354 851.353 417.889 848.566 387.643 845.339C365.145 842.398 342.362 839.918 320.676 833.026C315.935 831.775 311.852 829.075 308.867 825.234C312.401 811.933 329.236 812.372 340.101 809.343C341.572 799.29 346.883 789.654 355.509 784.079C365.452 777.626 377.656 775.958 389.267 776.221C392.186 773.17 395.15 770.185 397.893 767.003C404.873 753.833 402.678 738.139 399.078 724.289C393.679 701.879 392.647 678.679 395.106 655.808C391.528 650.013 385.426 646.194 381.058 640.992C361.918 619.724 345.852 594.197 341.747 565.399C342.845 562.107 344.249 558.858 344.403 555.39C345.039 535.395 343.02 515.311 345.039 495.381C346.181 509.473 345.347 523.608 345.588 537.721C345.896 550.496 343.92 564.06 349.846 575.935C350.198 574.025 350.878 570.206 351.229 568.318C352.458 573.828 354.017 579.315 355.948 584.671C358.736 592.726 362.731 600.32 367.098 607.629C367.779 608.793 368.481 609.956 369.184 611.185C374.21 619.35 380.465 626.681 387.072 633.617C395.501 642.243 404.763 650.101 414.882 656.664C452.942 681.028 500.33 690.905 544.843 682.432C556.871 680.545 568.636 677.033 579.786 672.116C604.852 660.132 628.996 644.79 646.797 623.126C666.178 599.684 678.338 569.723 677.241 539.016C678.031 496.084 677.899 453.151 678.404 410.196C678.514 407.541 678.645 404.885 678.777 402.251C679.918 403.304 682.223 405.411 683.364 406.465C686.591 426.988 680.599 448.586 686.547 468.625C689.269 464.389 692.012 460.175 694.361 455.741C701.868 440.925 703.492 424.134 706.916 408.111C700.353 399.2 698.904 387.984 701.758 377.426C698.509 374.748 695.239 371.939 693.527 368.01C693.439 364.827 693.483 361.667 693.461 358.506C696.973 350.802 701.297 342.747 708.957 338.488ZM702.131 362.128C701.67 365.398 703.47 372.619 708.101 369.898C712.776 367.044 718.527 365.354 722.719 370.007C717.671 375.583 708.738 379.819 709.813 388.664C710.252 402.69 730.862 407.431 739.532 397.795C748.992 388.533 748.663 373.805 745.239 361.952C742.452 352.36 734.55 342.812 723.817 342.922C713.018 342.308 703.58 351.877 702.131 362.128ZM435.448 678.613C433.341 698.258 434.043 718.056 435.273 737.744C434.658 750.036 454.654 736.515 455.839 748.346C459.351 761.208 464.246 773.631 467.604 786.559C469.755 792.705 471.774 798.917 473.486 805.238C499.452 805.128 525.44 804.909 551.406 805.479C553.381 798.653 555.686 791.937 558.034 785.264C562.775 771.414 567.297 757.521 571.994 743.671C576.494 743.715 581.015 743.846 585.537 744.044C589.312 722.753 590.475 701.023 587.885 679.557C539.378 698.543 483.561 699.355 435.448 678.613ZM412.687 752.143C412.094 756.313 411.172 760.484 409.68 764.478C410.47 764.544 412.006 764.698 412.797 764.764C416.089 765.949 419.623 766.037 423.091 766.454C424.32 768.934 425.527 771.546 424.935 774.465C418.481 774.4 412.27 772.073 405.817 771.722C404.127 774.443 402.371 777.143 400.615 779.865C399.1 781.972 397.564 784.079 396.049 786.23C378.292 782.367 356.365 788.184 349.21 806.489C366.506 806.226 383.824 806.336 401.12 805.633C419.755 806.116 438.389 805.831 457.024 806.116C459.724 806.226 462.446 806.38 465.167 806.555C458.956 788.206 452.481 769.922 447.059 751.309C435.602 750.892 424.122 750.98 412.687 752.143ZM579.04 751.704C573.421 769.9 566.529 787.701 560.866 805.918C562.446 805.853 565.607 805.743 567.187 805.677C586.832 805.94 606.52 806.006 626.143 805.655C643.11 806.379 660.098 806.555 677.065 807.258C673.729 800.914 669.734 794.593 663.456 790.839C653.448 783.772 640.563 785.286 629.018 785.286C622.521 787.35 616.31 790.225 609.703 791.959C607.53 782.499 619.69 781.489 625.726 778.438C623.948 776.463 622.148 774.531 620.37 772.622C613.785 773.412 607.179 774.356 600.55 773.609C600.791 771.722 601.231 767.968 601.472 766.081C606.389 765.861 611.305 765.795 616.244 765.795C615.08 761.559 613.895 757.345 612.776 753.131C601.713 750.87 590.256 750.606 579.04 751.704ZM346.773 815.884C346.598 818.21 346.444 820.537 346.291 822.907C387.336 823.412 428.403 823.302 469.404 822.446C468.767 820.954 467.45 817.969 466.814 816.454C460.997 815.664 455.137 815.84 449.298 815.884C415.123 816.52 380.948 815.884 346.773 815.884ZM558.276 815.971C558.1 817.727 557.727 821.239 557.53 822.995C596.841 822.337 636.174 823.039 675.485 823.61C679.282 824.729 682.223 820.01 678.997 817.486C668.329 815.818 657.486 816.454 646.731 816.279C617.231 816.322 587.754 815.708 558.276 815.971Z"></path>
<path fill="#FDFDFC" d="M702.131 362.128C703.58 351.877 713.018 342.308 723.817 342.922C734.55 342.812 742.452 352.36 745.24 361.952C748.664 373.805 748.993 388.533 739.533 397.795C730.863 407.431 710.253 402.69 709.814 388.664C708.738 379.819 717.671 375.583 722.72 370.007C718.527 365.354 712.777 367.044 708.102 369.898C703.47 372.619 701.67 365.398 702.131 362.128Z"></path>
<path fill="#FDFDFC" d="M269.644 582.234C279.148 574.991 292.23 581.4 299.232 589.192C304.895 595.952 309.263 608.485 300.373 614.478C296.73 611.427 294.118 606.576 289.289 605.303C285.272 605.5 282.836 608.156 281.914 611.866C287.357 614.829 294.14 618.56 294.359 625.628C295.171 632.147 289.355 638.6 282.704 638.139C269.732 639.236 259.745 626.659 258.384 614.763C256.584 603.152 258.801 588.797 269.644 582.234Z"></path>
<path fill="#B0C5D8" d="M693.527 368.01C695.239 371.939 698.509 374.749 701.758 377.426C698.904 387.984 700.353 399.2 706.916 408.111C703.492 424.134 701.868 440.925 694.361 455.741C686.745 449.573 691.047 438.643 690.037 430.258C689.027 411.557 692.034 392.484 688.04 374.068L687.996 372.707C689.817 371.127 691.661 369.547 693.527 368.01Z"></path>
<path fill="#505557" d="M650.375 400.232C659.747 397.971 669.163 395.82 678.536 393.493C678.602 396.39 678.667 399.31 678.777 402.251C678.646 404.885 678.514 407.541 678.404 410.196C678.141 409.45 677.592 407.914 677.329 407.145C674.234 407.958 671.205 408.923 668.154 409.757L666.749 410.021C661.547 410.899 656.389 411.865 651.275 412.984C640.937 415.201 630.533 417.154 620.151 419.174C629.479 414.674 639.664 412.743 649.98 413.203C651.012 408.923 651.385 404.534 650.375 400.232Z"></path>
<path fill="#545A68" d="M349.605 394.305C350.593 394.437 352.59 394.656 353.6 394.766C360.777 396.851 367.889 399.2 375.198 400.846C375.33 405.126 375.483 409.472 375.615 413.796C370.874 412.479 366.111 411.228 361.26 410.35C357.375 409.823 353.446 409.494 349.539 409.165C349.539 408.089 349.518 405.96 349.496 404.885C350.791 405.104 353.381 405.521 354.676 405.741C353.512 405.126 351.208 403.919 350.066 403.304C349.891 400.297 349.737 397.29 349.605 394.305Z"></path>
<path fill="#787E89" d="M375.198 400.846C404.083 406.926 433.298 412.457 462.841 413.884C461.305 414.016 458.232 414.257 456.695 414.367C455.971 418.406 455.247 422.466 454.369 426.505L454.215 427.207C448.925 426.944 443.658 426.878 438.39 426.702C439.685 426.417 442.253 425.868 443.548 425.583C446.467 425.671 449.386 425.78 452.327 425.89C452.547 424.178 452.986 420.71 453.205 418.998C442.363 416.474 431.366 414.74 420.304 413.708C419.074 415.903 417.845 418.098 416.638 420.315C414.816 420.249 411.173 420.139 409.373 420.096C398.047 419.349 386.809 417.506 376.032 413.928L375.615 413.796C375.483 409.472 375.33 405.126 375.198 400.846Z"></path>
<path fill="#676E73" d="M583.034 411.47C605.532 408.265 628.206 405.455 650.375 400.232C651.384 404.534 651.011 408.923 649.98 413.203C639.663 412.743 629.479 414.674 620.15 419.174C619.712 419.261 618.812 419.481 618.373 419.591C607.047 406.816 588.983 412.523 574.804 416.013C575.747 419.305 576.867 422.642 577.876 425.978C571.379 426.922 564.817 427.427 558.298 428.085C562.161 426.636 565.958 425.034 569.777 423.454C567.78 420.425 566.616 416.518 563.5 414.477C559.768 413.818 555.971 413.972 552.218 414.103C562.446 412.633 572.652 410.921 583.034 411.47Z"></path>
<path fill="#94AA63" d="M668.154 409.757C671.205 408.923 674.234 407.958 677.329 407.146C677.592 407.914 678.141 409.45 678.404 410.196C677.899 453.151 678.031 496.084 677.241 539.016C672.983 524.31 675.99 508.902 675.309 493.867C674.431 466.277 675.485 438.686 675.024 411.096C673.29 410.767 669.866 410.109 668.154 409.757Z"></path>
<path fill="#7A9B37" d="M349.539 409.165C353.446 409.494 357.375 409.823 361.26 410.35C361.063 455.017 361.853 499.683 361.502 544.35C362.029 577.801 379.632 607.871 399.803 633.42C406.344 641.014 411.063 650.233 419.162 656.423L414.882 656.664C404.764 650.101 395.501 642.243 387.073 633.617C387.226 632.673 387.555 630.786 387.709 629.864C382.77 623.126 377.876 616.343 372.915 609.627C371.993 610.022 370.128 610.79 369.184 611.185C368.482 609.956 367.779 608.793 367.099 607.63C368.438 602.384 365.804 597.511 363.609 592.967C361.765 589.609 360.36 585.175 355.949 584.671C354.017 579.315 352.459 573.828 351.23 568.318C347.937 548.081 349.188 527.537 348.969 507.146C348.837 474.486 349.759 441.825 349.539 409.165Z"></path>
<path fill="#6C823B" d="M361.26 410.35C366.111 411.228 370.874 412.479 375.615 413.796L376.032 413.928C374.693 455.961 374.737 498.037 375.286 540.092C375 553.788 380.641 566.584 386.26 578.744C391.286 588.468 396.488 599.047 406.475 604.579C414.201 615.092 423.64 624.113 434.022 631.993C434.68 642.836 437.007 653.723 443.745 662.546C443.196 663.622 442.099 665.817 441.55 666.892C433.758 664.127 426.625 659.912 419.162 656.423C411.063 650.233 406.344 641.014 399.803 633.42C379.631 607.871 362.028 577.8 361.501 544.35C361.853 499.683 361.062 455.017 361.26 410.35Z"></path>
<path fill="#6C8339" d="M651.275 412.984C656.389 411.865 661.547 410.899 666.749 410.021C667.013 438.708 666.069 467.418 666.266 496.128C666.025 520.908 668.264 546.216 661.46 570.404C657.355 584.232 652.109 597.95 643.834 609.868C634.901 622.423 624.256 633.749 616.134 646.897C614.137 645.777 612.184 644.68 610.23 643.604C610.296 645.602 610.384 647.599 610.472 649.64C609.242 650.43 608.013 651.243 606.784 652.099C606.499 650.957 605.906 648.653 605.621 647.489C603.711 648.696 601.802 649.904 599.914 651.177C599.716 653.635 599.519 656.115 599.343 658.617C596.929 658.947 594.515 659.276 592.1 659.627C592.473 655.193 592.824 650.782 593.285 646.392C594.141 640.904 594.405 635.264 596.402 630.062C600.902 624.311 607.728 620.997 612.798 615.817C618.066 610.878 620.941 604.161 623.948 597.796C624.958 596.787 626.977 594.767 628.009 593.758C638.698 584.737 643.549 571.172 647.807 558.31C652.241 545.294 650.639 531.4 650.924 517.923C651.341 482.958 652.526 447.949 651.275 412.984Z"></path>
<path fill="#86A93D" d="M666.749 410.021L668.154 409.757C669.866 410.109 673.29 410.767 675.024 411.096C675.485 438.686 674.431 466.277 675.309 493.867C675.99 508.902 672.983 524.31 677.241 539.016C678.338 569.723 666.178 599.684 646.797 623.126C645.787 618.692 644.8 614.258 643.834 609.868C652.109 597.95 657.355 584.232 661.459 570.404C668.263 546.216 666.025 520.908 666.266 496.128C666.069 467.418 667.012 438.708 666.749 410.021Z"></path>
<path fill="#1B211A" d="M574.804 416.013C588.983 412.523 607.048 406.816 618.373 419.591C605.094 423.124 591.332 423.542 577.877 425.978C576.867 422.642 575.748 419.305 574.804 416.013Z"></path>
<path fill="#88A846" d="M376.032 413.928C386.809 417.506 398.047 419.349 409.373 420.096C420.721 422.203 432.09 424.134 443.548 425.583C442.253 425.868 439.685 426.417 438.39 426.702C443.658 426.878 448.925 426.944 454.215 427.207C458.561 428.765 461.963 431.992 464.443 435.833C466.594 434.692 468.767 433.594 470.94 432.497C471.994 433.66 474.079 435.987 475.133 437.15C466.133 439.279 457.31 442.681 449.869 448.256C443.087 453.217 439.465 461.865 431.212 464.916C417.055 470.886 407.99 485.438 405.883 500.298C404.851 513.489 405.663 526.725 405.356 539.96C405.576 561.492 404.215 583.112 406.476 604.579C396.489 599.047 391.287 588.468 386.26 578.744C380.641 566.584 375 553.788 375.286 540.092C374.737 498.037 374.693 455.961 376.032 413.928Z"></path>
<path fill="#212634" d="M416.638 420.315C417.845 418.098 419.074 415.903 420.303 413.708C431.366 414.74 442.362 416.474 453.205 418.998C452.986 420.71 452.547 424.178 452.327 425.89C449.386 425.781 446.467 425.671 443.548 425.583C432.09 424.134 420.721 422.203 409.373 420.096C411.173 420.14 414.816 420.249 416.638 420.315Z"></path>
<path fill="#828C9D" d="M456.695 414.367C458.232 414.257 461.305 414.016 462.841 413.884C492.582 415.969 522.477 416.452 552.218 414.103C555.971 413.972 559.769 413.818 563.5 414.477C566.617 416.518 567.78 420.425 569.778 423.454C565.958 425.034 562.161 426.637 558.298 428.085L555.884 428.349C529.918 428.568 503.864 429.907 477.964 427.405C470.106 426.9 462.248 426.571 454.369 426.505C455.247 422.466 455.971 418.406 456.695 414.367Z"></path>
<path fill="#88A444" d="M620.151 419.174C630.533 417.154 640.937 415.201 651.275 412.984C652.526 447.949 651.341 482.958 650.924 517.923C650.639 531.4 652.241 545.294 647.807 558.31C643.549 571.172 638.698 584.737 628.009 593.758C625.441 570.689 627.306 547.511 627.021 524.376C626.846 514.938 627.087 505.5 628.053 496.106C627.021 496.764 624.958 498.059 623.926 498.696C620.81 486.953 614.291 475.803 604.172 468.801C598.926 465.113 592.166 463.511 588.105 458.265C580.511 448.827 569.822 442.308 558.386 438.621C561.393 436.821 564.422 435.043 567.429 433.243C563.588 431.553 559.769 429.841 555.884 428.349L558.298 428.085C564.817 427.427 571.38 426.922 577.877 425.978C591.332 423.542 605.094 423.125 618.373 419.591C618.812 419.481 619.712 419.261 620.151 419.174Z"></path>
<path fill="#849342" d="M454.369 426.505C462.249 426.57 470.106 426.9 477.964 427.404C503.864 429.907 529.918 428.568 555.884 428.348C559.769 429.841 563.588 431.553 567.429 433.243C564.422 435.043 561.393 436.821 558.386 438.621C546.38 435.548 533.913 436.865 521.709 437.194C506.169 437.787 490.629 436.052 475.133 437.15C474.079 435.987 471.994 433.66 470.94 432.497C468.767 433.594 466.594 434.692 464.443 435.833C461.963 431.992 458.561 428.765 454.215 427.207L454.369 426.505Z"></path>
<path fill="#1D1C1E" d="M475.133 437.15C490.629 436.053 506.169 437.787 521.709 437.194C533.913 436.865 546.38 435.548 558.386 438.621C569.821 442.308 580.511 448.827 588.105 458.265C592.166 463.511 598.926 465.113 604.172 468.801C614.29 475.803 620.809 486.953 623.926 498.696C624.914 516.079 623.553 533.485 623.816 550.869C623.312 566.519 624.782 582.146 623.948 597.796C620.941 604.161 618.066 610.878 612.798 615.817C607.728 620.997 600.901 624.311 596.402 630.062C594.404 635.264 594.141 640.904 593.285 646.392C590.19 655.391 584.001 663.995 574.167 666.102C561.481 666.519 547.323 662.568 536.129 670.426C521.116 676.616 504.062 675.54 489.421 668.868C474.913 661.888 457.31 672.358 443.745 662.546C437.007 653.723 434.68 642.836 434.022 631.993C423.64 624.113 414.202 615.092 406.475 604.579C404.215 583.112 405.576 561.492 405.356 539.96C405.663 526.725 404.851 513.489 405.883 500.298C407.99 485.438 417.055 470.886 431.212 464.916C439.465 461.865 443.087 453.217 449.869 448.256C457.31 442.681 466.133 439.279 475.133 437.15ZM461.063 452.295V452.602C455.115 456.07 450.835 461.492 446.16 466.386C437.797 471.04 428.095 474.332 422.762 482.914C410.053 498.498 414.443 519.701 414.136 538.204C413.916 543.472 413.389 548.85 414.333 554.095C413.236 563.599 413.192 573.257 414.202 582.783C411.524 599.113 422.85 614.5 437.248 621.04L437.797 622.27C439.158 622.928 441.923 624.223 443.306 624.882C443.153 635.264 443.526 646.984 450.901 655.149L451.274 656.313C461.392 658.661 471.665 656.883 481.849 656.949C493.087 659.1 503.469 665.773 515.278 664.807C529.106 665.466 540.673 655.128 554.589 656.379C563.917 656.423 575.792 659.166 581.564 649.596C585.822 640.992 587.842 631.554 588.676 622.072C591.024 620.623 593.373 619.175 595.721 617.77L596.424 617.726C604.128 612.085 613.017 604.82 614.137 594.789C617.232 567.133 614.115 539.214 615.585 511.47C617.166 494.481 607.091 477.076 591.222 470.535C583.254 467.484 578.184 460.307 571.468 455.609C558.1 445.227 540.19 444.218 523.991 445.864C503.14 447.225 480.093 441.145 461.063 452.295Z"></path>
<path fill="#F6EACD" d="M461.063 452.295C480.093 441.145 503.14 447.225 523.991 445.864C540.19 444.218 558.101 445.227 571.468 455.609C567.758 454.731 564.049 453.854 560.427 452.756C541.661 445.271 521.709 455.258 502.328 452.515C493.636 451.329 484.68 450.012 476.011 451.878C470.392 453.722 465.585 457.321 460.975 460.921C460.997 458.134 461.041 455.346 461.063 452.602V452.295Z"></path>
<path fill="#EFD193" d="M476.01 451.878C484.68 450.012 493.636 451.329 502.328 452.514C495.304 453.458 488.456 455.324 481.783 457.629C475.615 459.758 468.833 462.019 464.86 467.572C461.546 471.457 459.702 477.515 453.864 478.195C442.011 480.763 432.902 490.157 427.481 500.583C422.542 513.182 424.781 527.054 427.174 539.96C429.368 549.596 423.925 558.749 424.254 568.362C424.649 577.515 428.403 586.141 433.1 593.889C430.51 594.614 427.964 595.448 425.396 596.238C425.703 600.891 426.01 605.566 426.318 610.263C429.281 612.283 432.244 614.368 435.185 616.431C435.712 617.573 436.721 619.877 437.248 621.04C422.85 614.5 411.524 599.113 414.202 582.783C417.713 573.499 418.24 563.358 414.333 554.095C413.389 548.85 413.916 543.472 414.136 538.204C416.901 523.63 413.653 508.353 418.438 494.174C422.784 483.946 432.771 477.405 442.933 473.849C450.176 471.457 455.378 465.75 460.975 460.921C465.585 457.321 470.391 453.722 476.01 451.878Z"></path>
<path fill="#DFAC79" d="M502.328 452.514C521.709 455.258 541.661 445.271 560.427 452.756C559.483 453.414 557.618 454.775 556.674 455.434C548.816 455.214 540.98 453.656 533.144 454.973C538.105 456.444 543.197 457.497 548.289 458.485C537.71 455.829 527.591 460.46 517.517 462.897C505.401 462.787 493.965 457.519 481.783 457.629C488.456 455.324 495.304 453.458 502.328 452.514Z"></path>
<path fill="#ECCD99" d="M560.427 452.756C564.049 453.853 567.758 454.731 571.468 455.609C578.184 460.306 583.255 467.484 591.222 470.535C607.091 477.076 617.166 494.481 615.586 511.47C614.115 539.214 617.232 567.133 614.137 594.789L613.918 592.024C613.105 564.565 611.81 537.085 612.842 509.604C613.127 500.693 608.913 492.177 600.924 487.962C605.555 502.186 611.942 518.274 603.514 532.519C603.777 519.306 605.489 504.468 597.17 493.142C590.059 483.99 579.26 478.085 567.934 476.066C565.234 467.023 557.618 460.065 548.289 458.485C543.197 457.497 538.105 456.443 533.145 454.973C540.98 453.656 548.816 455.214 556.674 455.434C557.618 454.775 559.484 453.414 560.427 452.756Z"></path>
<path fill="#FFFAF1" d="M446.16 466.386C450.835 461.492 455.115 456.07 461.063 452.602C461.041 455.346 460.997 458.134 460.975 460.921C455.378 465.75 450.176 471.457 442.933 473.849C432.771 477.405 422.784 483.946 418.438 494.174C413.653 508.353 416.901 523.63 414.136 538.204C414.443 519.701 410.053 498.498 422.762 482.914C428.095 474.332 437.797 471.04 446.16 466.386Z"></path>
<path fill="#1C1918" d="M464.86 467.572C468.833 462.019 475.615 459.758 481.783 457.629C493.965 457.519 505.401 462.787 517.517 462.897C527.591 460.46 537.71 455.829 548.289 458.485C557.618 460.065 565.234 467.023 567.934 476.066C579.26 478.085 590.059 483.99 597.17 493.142C605.489 504.468 603.777 519.306 603.513 532.519C597.521 545.733 605.95 559.275 603.887 572.884C602.987 586.339 594.822 598.564 583.628 605.808C578.886 608.771 573.794 611.141 568.944 613.929L569.251 616.607L569.58 619.306C568.461 624.991 566.771 631.4 561.349 634.517C554.874 637.919 547.28 637.305 540.212 637.502C532.464 643.538 523.509 649.421 513.193 648.367C503.864 648.367 496.138 642.748 489.224 637.173C478.93 639.587 466.726 638.293 460.58 628.613C459.483 623.543 458.78 618.407 458.78 613.27C456.125 611.954 453.469 610.724 450.835 609.429C443.965 605.479 437.753 600.32 433.1 593.889C428.403 586.141 424.649 577.515 424.254 568.362C423.925 558.749 429.369 549.596 427.174 539.96C424.781 527.054 422.542 513.182 427.481 500.583C432.902 490.157 442.011 480.763 453.864 478.195C459.702 477.515 461.546 471.457 464.86 467.572ZM474.474 468.757C466.814 472.005 467.253 484.121 458.21 484.78C446.335 486.206 438.434 497.006 434.022 507.212C428.249 521.589 435.668 536.404 435.427 551.022L434.812 550.693C431.146 560.966 429.522 572.664 435.009 582.673C440.628 596.831 455.115 603.371 466.638 611.866C466.594 616.146 464.882 620.975 467.67 624.838C471.226 631.291 480.049 631.093 486.305 629.623C487.49 629.447 489.839 629.074 491.024 628.898C494.733 632.015 498.443 635.154 502.437 637.919C509.329 640.246 517.034 642.178 524.145 639.61C529.962 637.7 533.539 632.41 537.666 628.262C539.093 628.086 541.946 627.691 543.373 627.494C543.592 628.613 544.031 630.852 544.251 631.971C550.067 630.149 555.818 628.064 561.349 625.496C561.744 620.623 561.81 615.751 562.468 610.944C566.046 607.059 571.402 605.522 575.792 602.735C583.606 598.455 589.817 591.848 594.448 584.298C596.973 574.047 599.497 561.646 593.571 552.252C592.276 541.387 597.982 531.18 596.731 520.294C596.973 508.309 592.363 496.391 582.969 488.731C582.354 488.731 581.169 488.731 580.555 488.731C575.726 484.955 569.295 485.263 564.093 482.563C559.418 476.922 556.454 469.108 548.97 466.562C537.578 461.843 526.472 469.613 515.234 470.623C501.911 468.581 487.424 461.601 474.474 468.757Z"></path>
<path fill="#F3D695" d="M474.474 468.757C487.424 461.602 501.911 468.581 515.234 470.623C526.472 469.613 537.578 461.843 548.97 466.562C556.455 469.108 559.418 476.922 564.093 482.563C569.295 485.263 575.726 484.955 580.555 488.731C574.453 488.884 568.351 488.27 562.359 487.15C563.171 489.192 564.005 491.277 564.817 493.362C561.7 492.572 558.65 491.628 555.665 490.553C551.736 486.536 549.409 480.412 543.614 478.744C532.903 474.859 521.665 479.71 510.735 478.195C501.45 477.12 491.683 475.078 482.771 478.919C474.628 481.488 473.662 492.594 464.839 494.174C448.465 499.091 442.165 517.901 443.329 533.463C444.25 540.728 445.677 548.147 443.241 555.325C440.629 553.854 438.017 552.449 435.427 551.023C435.668 536.404 428.249 521.589 434.022 507.212C438.434 497.006 446.336 486.207 458.21 484.78C467.253 484.121 466.814 472.005 474.474 468.757Z"></path>
<path fill="#18120E" d="M482.771 478.92C491.682 475.078 501.45 477.12 510.734 478.195C521.665 479.71 532.903 474.859 543.614 478.744C549.409 480.412 551.735 486.536 555.664 490.553C558.649 491.628 561.7 492.572 564.817 493.362C571.731 496.676 577.657 501.878 582.157 508.068C586.481 517.418 587.951 527.866 585.8 538.007C583.825 545.843 584.9 553.876 587.929 561.317C587.117 566.102 586.327 570.931 584.878 575.606C571.138 595.975 550.835 614.5 525.594 617.946C509.198 619.416 492.297 617.485 477.174 610.746C476.384 610.417 474.847 609.737 474.079 609.408C466.309 604.14 461.107 596.15 454.434 589.697C445.501 580.939 439.289 567.88 443.24 555.325C445.677 548.147 444.25 540.728 443.328 533.463C442.165 517.901 448.464 499.091 464.838 494.174C473.662 492.594 474.628 481.488 482.771 478.92ZM487.314 483.836C480.993 485.109 479.698 492.287 475.615 496.237C468.57 499.881 460.031 502.032 455.51 509.165C448.486 518.735 449.189 531.181 451.274 542.243C453.117 551.813 446.489 561.185 449.913 570.689C452.283 581.4 463.06 586.58 468.109 595.755C473.267 604.096 483.407 606.796 492.253 609.408L492.385 609.627C508.495 612.7 525.594 613.512 541.222 607.805C550.879 604.227 558.759 597.292 565.87 590.048C569.097 586.58 572.521 583.178 574.957 579.074C579.128 572.972 582.091 565.202 579.413 557.915C577.394 552.318 578.25 546.501 578.952 540.816C580.269 530.127 579.369 518.889 574.65 509.1L574.233 508.968C569.47 502.756 562.381 499.508 555.028 497.532C548.026 495.776 547.258 486.36 540.541 484.253C533.671 481.619 526.34 483.924 519.294 484.275C508.627 485.197 497.916 481.553 487.314 483.836Z"></path>
<path fill="#EFCF91" d="M487.315 483.836C497.916 481.553 508.627 485.197 519.295 484.275C526.34 483.924 533.671 481.619 540.541 484.253C547.258 486.36 548.026 495.776 555.028 497.532C562.381 499.508 569.47 502.756 574.233 508.968C569.909 507.783 565.651 506.246 561.152 505.851C557.135 507.014 553.645 509.429 550.023 511.448C547.675 510.921 545.348 510.438 543.022 509.956C540.168 526.791 543.483 544.438 537.951 560.768C538.522 544.394 537.864 528.02 537.49 511.646C533.32 511.733 529.172 511.909 525.001 512.041C522.762 521.589 523.026 531.466 523.575 541.189C517.824 532.827 513.544 523.41 506.762 515.816C503.206 511.207 496.797 513.775 492.012 513.994C491.331 514.17 489.992 514.477 489.312 514.631C488.017 529.578 489.29 544.635 488.346 559.627C487.315 565.202 490.958 569.394 495.019 572.62C489.268 577.647 483.561 582.849 476.559 586.141C477.745 588.885 478.908 591.607 480.093 594.394C477.854 593.34 475.616 592.287 473.399 591.233C472.938 592.089 472.016 593.845 471.555 594.701C476.362 599.091 482.135 602.428 488.653 603.349C489.839 605.325 491.046 607.388 492.253 609.407C483.408 606.795 473.267 604.096 468.109 595.755C463.061 586.58 452.284 581.4 449.913 570.689C446.489 561.185 453.118 551.813 451.274 542.243C449.189 531.18 448.486 518.735 455.51 509.165C460.032 502.032 468.57 499.881 475.616 496.237C479.698 492.286 480.993 485.109 487.315 483.836Z"></path>
<path fill="#EFC27E" d="M562.359 487.15C568.351 488.27 574.453 488.884 580.555 488.731C581.169 488.731 582.355 488.731 582.969 488.731C580.862 494.964 580.247 501.681 582.157 508.068C577.657 501.878 571.731 496.676 564.817 493.362C564.005 491.277 563.171 489.192 562.359 487.15Z"></path>
<path fill="#C39669" d="M582.969 488.731C592.363 496.391 596.972 508.309 596.731 520.294C597.982 531.18 592.275 541.387 593.57 552.252C591.814 550.496 590.037 548.762 588.259 547.072C589.246 551.791 589.576 556.663 587.929 561.317C584.9 553.876 583.825 545.843 585.8 538.007C587.951 527.866 586.481 517.418 582.157 508.068C580.247 501.681 580.862 494.964 582.969 488.731Z"></path>
<path fill="#D9B079" d="M600.923 487.963C608.913 492.177 613.127 500.693 612.842 509.604C611.81 537.085 613.105 564.565 613.917 592.024C613.105 592.638 611.503 593.845 610.691 594.438C602.262 598.674 596.687 609.122 586.854 609.759C586.042 608.771 584.44 606.795 583.627 605.808C594.822 598.565 602.987 586.339 603.887 572.884C605.95 559.275 597.521 545.733 603.513 532.519C611.942 518.274 605.555 502.186 600.923 487.963Z"></path>
<path fill="#96AE59" d="M623.926 498.696C624.958 498.059 627.021 496.764 628.053 496.106C627.087 505.5 626.845 514.938 627.021 524.376C627.306 547.511 625.441 570.689 628.009 593.758C626.977 594.767 624.958 596.787 623.948 597.796C624.782 582.146 623.311 566.519 623.816 550.869C623.553 533.485 624.914 516.079 623.926 498.696Z"></path>
<path fill="#DDB67B" d="M550.023 511.448C553.645 509.429 557.135 507.015 561.151 505.851C565.651 506.246 569.909 507.783 574.233 508.968L574.65 509.1C579.369 518.889 580.269 530.127 578.952 540.816C577.635 535.79 575.155 531.071 570.567 528.371C569.975 532.871 569.47 537.414 569.141 541.958C568.153 537.963 567.034 534.034 565.695 530.193C564.466 535.79 565.958 544.196 558.934 546.238C551.362 548.784 547.872 556.137 543.46 562.151C539.268 573.103 526.23 570.382 517.099 572.379C515.19 579.293 513.982 586.624 509.483 592.485C510.844 592.748 513.565 593.275 514.926 593.538C512.644 594.679 510.383 595.843 508.1 596.984C498.75 597.489 488.982 597.84 480.093 594.394C478.908 591.607 477.744 588.885 476.559 586.141C483.561 582.849 489.268 577.647 495.018 572.621C499.32 570.338 504.5 569.262 507.99 565.707C509 558.529 509 551.242 510.734 544.174C511.524 545.404 513.105 547.84 513.895 549.047C516.309 553.635 518.35 558.42 521.182 562.787C524.672 569.087 536.897 568.823 537.951 560.768C543.482 544.438 540.168 526.791 543.021 509.956C545.348 510.439 547.674 510.921 550.023 511.448Z"></path>
<path fill="#2E1F0F" d="M525.001 512.041C529.172 511.909 533.32 511.733 537.49 511.646C537.864 528.02 538.522 544.394 537.951 560.768C536.898 568.823 524.672 569.087 521.182 562.787C518.351 558.419 516.309 553.634 513.895 549.047C521.621 552.339 522.872 563.226 531.893 564.192C535.91 549.244 536.415 533.463 534.242 518.208C533.715 513.862 527.855 514.038 525.001 512.041Z"></path>
<path fill="#E7D2A4" d="M489.312 514.631C489.993 514.477 491.331 514.17 492.012 513.994C490.892 531.729 491.266 549.574 491.946 567.309C496.314 566.585 500.967 566.716 505.094 564.938C507.574 556.049 505.708 546.677 505.84 537.611L507.442 539.411C508.54 540.97 509.637 542.55 510.735 544.174C509.001 551.242 509.001 558.529 507.991 565.706C504.501 569.262 499.321 570.338 495.019 572.62C490.958 569.394 487.315 565.202 488.346 559.627C489.29 544.635 488.017 529.578 489.312 514.631Z"></path>
<path fill="#252426" d="M492.012 513.994C496.796 513.775 503.206 511.207 506.761 515.816C513.544 523.41 517.824 532.827 523.574 541.189C523.026 531.466 522.762 521.589 525.001 512.041C527.855 514.038 533.715 513.863 534.242 518.208C536.415 533.463 535.91 549.245 531.893 564.192C522.872 563.226 521.621 552.339 513.895 549.047C513.105 547.84 511.524 545.403 510.734 544.174C509.637 542.55 508.539 540.97 507.442 539.411C506.915 538.643 505.905 537.129 505.401 536.36C498.772 542.616 502.02 551.527 501.603 559.429C500.067 561.317 498.048 562.787 496.204 564.39C495.567 560.746 494.975 557.102 494.404 553.503C493.636 558.09 492.802 562.7 491.946 567.309C491.265 549.574 490.892 531.729 492.012 513.994Z"></path>
<path fill="#CFA66F" d="M570.568 528.371C575.155 531.071 577.636 535.79 578.953 540.816C578.25 546.501 577.394 552.317 579.414 557.915C582.091 565.202 579.128 572.972 574.958 579.074C576.055 571.918 576.253 564.697 576.055 557.519C575.419 558.924 574.168 561.734 573.531 563.138C572.28 562.019 571.051 560.922 569.844 559.846C564.115 569.284 556.038 578.042 554.501 589.346C540.651 598.323 523.75 596.326 508.101 596.984C510.383 595.843 512.644 594.679 514.927 593.538C513.566 593.275 510.844 592.748 509.483 592.485C513.983 586.624 515.19 579.293 517.1 572.379C526.231 570.382 539.268 573.103 543.461 562.151C547.873 556.137 551.362 548.784 558.935 546.238C565.959 544.196 564.466 535.79 565.695 530.193C567.034 534.034 568.154 537.963 569.141 541.957C569.471 537.414 569.975 532.87 570.568 528.371Z"></path>
<path fill="#362B17" d="M501.603 559.429C502.02 551.527 498.772 542.616 505.4 536.36C505.905 537.129 506.915 538.643 507.441 539.411L505.839 537.611C505.707 546.676 507.573 556.049 505.093 564.938C500.966 566.716 496.313 566.584 491.945 567.309C492.801 562.699 493.635 558.09 494.404 553.503C494.974 557.102 495.567 560.746 496.203 564.39C498.047 562.787 500.067 561.317 501.603 559.429Z"></path>
<path fill="#B38865" d="M587.929 561.317C589.576 556.664 589.246 551.791 588.259 547.072C590.036 548.762 591.814 550.496 593.57 552.252C599.497 561.646 596.972 574.047 594.448 584.298C591.31 581.335 588.105 578.437 584.878 575.606C586.327 570.931 587.117 566.102 587.929 561.317Z"></path>
<path fill="#EAC484" d="M434.812 550.693L435.426 551.022C438.016 552.449 440.628 553.854 443.24 555.324C439.289 567.879 445.501 580.939 454.434 589.697C461.107 596.15 466.309 604.14 474.079 609.407C472.543 609.495 469.492 609.693 467.955 609.78C468.592 613.753 468.811 617.967 470.611 621.677C474.167 626.769 480.73 627.932 486.305 629.622C480.049 631.093 471.226 631.291 467.67 624.838C464.882 620.974 466.594 616.146 466.638 611.866C455.115 603.371 440.628 596.83 435.009 582.673C429.522 572.664 431.146 560.965 434.812 550.693Z"></path>
<path fill="#F7E2B5" d="M414.333 554.095C418.24 563.358 417.713 573.498 414.202 582.783C413.192 573.257 413.236 563.599 414.333 554.095Z"></path>
<path fill="#C0995F" d="M576.055 557.52C576.253 564.697 576.055 571.918 574.958 579.074C572.521 583.178 569.097 586.58 565.871 590.048C563.807 587.985 561.415 586.624 558.562 587.678L554.501 589.346C556.037 578.042 564.115 569.284 569.843 559.846C571.051 560.922 572.28 562.019 573.531 563.139C574.167 561.734 575.419 558.924 576.055 557.52Z"></path>
<path fill="#A47A53" d="M525.594 617.946C550.835 614.5 571.139 595.974 584.879 575.606C588.105 578.437 591.31 581.334 594.449 584.297C589.817 591.848 583.606 598.455 575.792 602.735C571.402 605.522 566.046 607.059 562.469 610.944C561.81 615.751 561.744 620.623 561.349 625.496C555.818 628.064 550.067 630.149 544.251 631.971C544.031 630.852 543.592 628.613 543.373 627.493C541.946 627.691 539.093 628.086 537.666 628.262C531.63 629.381 527.416 634.408 521.709 636.185C515.3 636.844 508.803 636.756 502.437 637.919C498.443 635.154 494.733 632.015 491.024 628.898C489.839 629.074 487.49 629.447 486.305 629.622C480.73 627.932 474.167 626.769 470.611 621.677C468.811 617.967 468.592 613.753 467.955 609.78C469.492 609.693 472.543 609.495 474.079 609.407C474.847 609.737 476.384 610.417 477.174 610.746C479.106 613.27 480.927 616.475 484.307 617.309C498.509 622.05 513.807 622.818 528.557 620.579C527.833 619.921 526.34 618.604 525.594 617.946Z"></path>
<path fill="#89995B" d="M355.948 584.671C360.36 585.175 361.765 589.609 363.609 592.967C365.804 597.511 368.438 602.384 367.099 607.63C362.731 600.32 358.736 592.726 355.948 584.671Z"></path>
<path fill="#B9936C" d="M558.561 587.678C561.415 586.624 563.807 587.985 565.871 590.048C558.759 597.291 550.879 604.227 541.222 607.805C525.594 613.512 508.495 612.7 492.385 609.627L492.253 609.407C491.046 607.388 489.839 605.325 488.653 603.349C508.342 606.115 529.611 607.849 548.18 599.355C553.403 597.357 556.41 592.55 558.561 587.678Z"></path>
<path fill="#222424" d="M508.1 596.984C523.75 596.326 540.651 598.323 554.501 589.346L558.561 587.678C556.41 592.55 553.403 597.357 548.179 599.355C529.61 607.849 508.342 606.115 488.653 603.349C482.134 602.428 476.362 599.091 471.555 594.701C472.016 593.845 472.937 592.089 473.398 591.233C475.615 592.287 477.854 593.341 480.093 594.394C488.982 597.84 498.75 597.489 508.1 596.984Z"></path>
<path fill="#A28259" d="M610.691 594.438C611.503 593.845 613.105 592.638 613.917 592.024L614.137 594.789C613.017 604.82 604.128 612.085 596.424 617.726L595.721 617.77C586.985 618.143 578.337 620.536 569.58 619.307L569.25 616.607C586.195 618.494 602.942 609.693 610.691 594.438ZM601.384 610.922C602.503 612.041 602.503 612.041 601.384 610.922Z"></path>
<path fill="#E2CB7E" d="M425.396 596.238C427.964 595.448 430.51 594.614 433.1 593.889C437.753 600.32 443.965 605.478 450.835 609.429C446.445 609.517 442.297 608.112 438.258 606.598C439.531 609.912 440.804 613.27 442.055 616.629C440.343 616.585 436.897 616.475 435.185 616.431C432.244 614.368 429.281 612.283 426.318 610.263C426.01 605.566 425.703 600.891 425.396 596.238Z"></path>
<path fill="#DCB98D" d="M586.854 609.759C596.687 609.122 602.262 598.674 610.691 594.438C602.943 609.693 586.195 618.494 569.251 616.607L568.943 613.929C573.794 611.141 578.886 608.771 583.627 605.808C584.439 606.795 586.042 608.771 586.854 609.759Z"></path>
<path fill="#D7AB6D" d="M438.258 606.598C442.297 608.112 446.445 609.517 450.835 609.429C453.469 610.724 456.125 611.953 458.78 613.27C458.78 618.407 459.483 623.543 460.58 628.613C460.646 630.105 460.822 633.134 460.888 634.649C467.077 642.748 477.788 640.992 486.7 641.826C492.055 642.09 495.655 646.699 499.76 649.596C498.179 651.023 496.599 652.472 495.041 653.92C487.885 650.847 480.203 648.565 472.411 650.54C463.982 652.625 455.598 650.233 448.003 646.523C448.991 649.377 449.935 652.252 450.901 655.149C443.526 646.984 443.153 635.263 443.306 624.881C441.923 624.223 439.158 622.928 437.797 622.27L437.248 621.04C436.722 619.877 435.712 617.572 435.185 616.431C436.897 616.475 440.343 616.585 442.055 616.629C440.804 613.27 439.531 609.912 438.258 606.598Z"></path>
<path fill="#879854" d="M369.184 611.185C370.128 610.79 371.993 610.022 372.915 609.627C377.876 616.343 382.77 623.126 387.709 629.864C387.555 630.786 387.226 632.674 387.072 633.617C380.466 626.681 374.21 619.35 369.184 611.185Z"></path>
<path fill="#CEB783" d="M601.384 610.922C602.504 612.041 602.504 612.041 601.384 610.922Z"></path>
<path fill="#869C44" d="M616.134 646.897C624.256 633.749 634.901 622.423 643.834 609.868C644.8 614.258 645.788 618.692 646.797 623.126C628.997 644.79 604.852 660.132 579.786 672.116C579.94 670.887 580.225 668.429 580.357 667.2C578.294 666.783 576.231 666.409 574.167 666.102C584.001 663.995 590.19 655.391 593.285 646.392C592.824 650.782 592.473 655.193 592.1 659.627C594.514 659.276 596.929 658.947 599.343 658.617C599.519 656.115 599.716 653.635 599.914 651.177C601.801 649.904 603.711 648.696 605.621 647.489C605.906 648.653 606.499 650.957 606.784 652.099C608.013 651.243 609.242 650.43 610.471 649.64C610.384 647.599 610.296 645.602 610.23 643.604C612.183 644.68 614.137 645.777 616.134 646.897Z"></path>
<path fill="#B6906D" d="M477.174 610.746C492.297 617.485 509.198 619.416 525.594 617.946C526.34 618.604 527.833 619.921 528.557 620.579C513.807 622.818 498.508 622.05 484.307 617.309C480.927 616.475 479.105 613.27 477.174 610.746Z"></path>
<path fill="#D7B078" d="M569.58 619.306C578.338 620.536 586.986 618.143 595.722 617.77C593.373 619.175 591.024 620.623 588.676 622.072C587.842 631.554 585.822 640.992 581.564 649.596C579.852 648.96 578.14 648.411 576.406 647.906C567.144 647.533 557.969 649.201 548.86 650.628C531.41 655.193 512.666 661.954 495.041 653.92C496.599 652.472 498.179 651.023 499.76 649.596C495.655 646.699 492.055 642.09 486.7 641.826C477.788 640.992 467.077 642.748 460.888 634.649C460.822 633.134 460.646 630.105 460.58 628.613C466.726 638.293 478.93 639.587 489.224 637.173C496.138 642.748 503.864 648.367 513.193 648.367C523.509 649.421 532.464 643.538 540.212 637.502C547.28 637.305 554.874 637.919 561.349 634.517C566.771 631.4 568.461 624.991 569.58 619.306Z"></path>
<path fill="#9F8868" d="M521.709 636.185C527.416 634.408 531.63 629.381 537.666 628.262C533.54 632.41 529.962 637.7 524.145 639.61C517.034 642.178 509.33 640.246 502.438 637.919C508.803 636.756 515.3 636.844 521.709 636.185Z"></path>
<path fill="#97785D" d="M448.003 646.523C455.598 650.233 463.982 652.625 472.411 650.54C480.203 648.565 487.885 650.847 495.04 653.92C512.666 661.954 531.41 655.193 548.86 650.628C557.859 652.164 569.185 655.413 576.406 647.906C578.14 648.411 579.852 648.96 581.564 649.596C575.791 659.166 563.917 656.423 554.588 656.379C540.673 655.128 529.105 665.466 515.277 664.807C503.469 665.773 493.087 659.1 481.849 656.949C471.664 656.884 461.392 658.661 451.274 656.313L450.9 655.15C449.935 652.252 448.991 649.377 448.003 646.523Z"></path>
<path fill="#96734B" d="M548.86 650.628C557.969 649.201 567.144 647.533 576.406 647.906C569.185 655.413 557.859 652.164 548.86 650.628Z"></path>
<path fill="#708F3D" d="M414.882 656.664L419.162 656.423C426.625 659.912 433.758 664.127 441.55 666.892C442.099 665.817 443.197 663.622 443.745 662.546C457.31 672.358 474.913 661.888 489.422 668.868C504.062 675.54 521.116 676.616 536.129 670.426C535.756 671.194 535.01 672.753 534.637 673.521C531.937 675.013 529.128 676.309 526.34 677.669C532.508 679.294 538.61 681.071 544.843 682.432C500.33 690.905 452.942 681.028 414.882 656.664Z"></path>
<path fill="#6C8A3B" d="M536.13 670.426C547.324 662.568 561.481 666.519 574.168 666.102C576.231 666.409 578.294 666.782 580.357 667.199C580.226 668.429 579.94 670.887 579.787 672.116C568.636 677.033 556.872 680.545 544.843 682.432C538.61 681.071 532.508 679.294 526.34 677.669C529.128 676.308 531.937 675.013 534.637 673.521C535.01 672.753 535.757 671.194 536.13 670.426Z"></path>
<path fill="#B5C7D5" d="M435.448 678.613C483.561 699.355 539.378 698.543 587.886 679.557C590.476 701.023 589.312 722.753 585.537 744.044C581.015 743.846 576.494 743.715 571.994 743.671C567.297 757.521 562.776 771.414 558.035 785.264C532.771 786.208 507.486 786.691 482.222 785.703C477.327 785.44 472.455 785.901 467.604 786.559C464.246 773.631 459.351 761.208 455.839 748.346C454.654 736.515 434.658 750.036 435.273 737.744C434.044 718.056 433.341 698.258 435.448 678.613Z"></path>
<path fill="#CEDD85" d="M412.687 752.143C424.123 750.98 435.602 750.892 447.06 751.309C452.481 769.922 458.956 788.206 465.168 806.555C462.446 806.38 459.724 806.226 457.025 806.116L456.212 803.833C451.164 788.886 446.204 773.917 441.155 758.969C440.826 758.004 440.146 756.116 439.794 755.172C431.542 754.294 423.179 754.382 414.948 755.545C414.685 756.665 414.136 758.925 413.872 760.045C413.609 761.23 413.06 763.579 412.797 764.764C412.007 764.698 410.47 764.544 409.68 764.479C411.173 760.484 412.095 756.313 412.687 752.143Z"></path>
<path fill="#C3CBD1" d="M579.04 751.704C590.256 750.607 601.713 750.87 612.776 753.131C613.895 757.345 615.08 761.559 616.244 765.796C611.305 765.796 606.389 765.861 601.472 766.081C601.231 767.969 600.792 771.722 600.55 773.609C607.179 774.356 613.785 773.412 620.37 772.622C622.148 774.531 623.948 776.463 625.726 778.438C619.69 781.489 607.53 782.499 609.703 791.959C612.82 794.571 616.485 796.437 620.151 798.236C605.006 806.05 587.249 802.187 570.919 802.802C570.633 801.836 570.041 799.905 569.755 798.939C576.889 782.96 579.128 762.964 594.668 752.45C589.444 752.319 584.242 752.121 579.04 751.704Z"></path>
<path fill="#EDEFF2" d="M579.04 751.704C584.242 752.121 589.444 752.319 594.668 752.45C579.128 762.964 576.889 782.96 569.756 798.939C568.9 801.156 568.044 803.416 567.188 805.677C565.607 805.743 562.447 805.853 560.866 805.919C566.529 787.701 573.421 769.9 579.04 751.704Z"></path>
<path fill="#8AAB40" d="M414.948 755.545C423.179 754.382 431.542 754.294 439.795 755.172C440.146 756.116 440.826 758.003 441.155 758.969C435.646 763.644 431.476 769.549 430.422 776.858C429.544 773.104 429.017 769.219 427.305 765.751C423.047 763.359 418.284 762.108 413.873 760.045C414.136 758.925 414.685 756.664 414.948 755.545Z"></path>
<path fill="#9AB451" d="M413.872 760.045C418.284 762.108 423.047 763.359 427.305 765.751C429.017 769.219 429.544 773.104 430.422 776.858C431.476 769.549 435.646 763.644 441.155 758.969C446.203 773.917 451.164 788.886 456.212 803.833C438.038 802.494 419.535 805.26 401.581 801.397C406.08 797.709 411.173 794.9 416.375 792.376L418.372 791.322C416.375 783.201 407.924 780.721 400.615 779.865C402.371 777.143 404.127 774.443 405.817 771.722C412.27 772.073 418.482 774.399 424.935 774.465C425.527 771.546 424.32 768.934 423.091 766.454C419.623 766.037 416.089 765.949 412.797 764.764C413.06 763.578 413.609 761.23 413.872 760.045Z"></path>
<path fill="#131E0D" d="M396.05 786.23C397.564 784.079 399.101 781.972 400.615 779.865C407.924 780.721 416.375 783.201 418.372 791.322L416.375 792.376C412.007 790.62 407.639 788.776 403.052 787.679C400.725 787.108 398.398 786.625 396.05 786.23Z"></path>
<path fill="#EDEFEE" d="M349.21 806.489C356.366 788.184 378.293 782.367 396.05 786.23C398.398 786.625 400.725 787.108 403.052 787.679C397.367 790.993 397.564 797.841 397.191 803.658C398.179 804.141 400.154 805.128 401.12 805.633C383.824 806.335 366.506 806.226 349.21 806.489Z"></path>
<path fill="#FDFEFF" d="M467.604 786.559C472.455 785.901 477.328 785.44 482.222 785.703C507.486 786.691 532.771 786.208 558.035 785.264C555.686 791.937 553.381 798.653 551.406 805.48C525.44 804.909 499.452 805.128 473.486 805.238C471.774 798.917 469.755 792.705 467.604 786.559Z"></path>
<path fill="#CED2D7" d="M609.703 791.959C616.31 790.225 622.521 787.35 629.018 785.286C631.652 791.125 634.198 797.007 636.657 802.933C633.145 803.833 629.677 804.843 626.143 805.655C606.52 806.006 586.832 805.94 567.188 805.677C568.044 803.416 568.899 801.156 569.756 798.939C570.041 799.904 570.633 801.836 570.919 802.802C587.249 802.187 605.006 806.05 620.151 798.236C616.485 796.436 612.82 794.571 609.703 791.959Z"></path>
<path fill="#F5F6F9" d="M629.018 785.286C640.564 785.286 653.448 783.772 663.457 790.839C669.734 794.593 673.729 800.914 677.065 807.257C660.098 806.555 643.11 806.379 626.143 805.655C629.677 804.843 633.145 803.833 636.657 802.933C634.198 797.007 631.652 791.125 629.018 785.286Z"></path>
<path fill="#ABBC71" d="M403.051 787.679C407.639 788.776 412.007 790.62 416.375 792.376C411.173 794.9 406.08 797.709 401.581 801.397C419.535 805.26 438.038 802.494 456.212 803.833L457.024 806.116C438.39 805.831 419.755 806.116 401.12 805.633C400.154 805.128 398.179 804.141 397.191 803.658C397.564 797.841 397.367 790.993 403.051 787.679Z"></path>
<path fill="#E5E6E8" d="M346.774 815.884C380.949 815.884 415.123 816.52 449.298 815.884C455.137 815.84 460.997 815.664 466.814 816.454C467.45 817.969 468.767 820.954 469.404 822.446C428.403 823.302 387.336 823.412 346.291 822.907C346.444 820.537 346.598 818.21 346.774 815.884Z"></path>
<path fill="#E1E1E3" d="M558.276 815.971C587.754 815.708 617.232 816.322 646.731 816.279C657.486 816.454 668.329 815.818 678.997 817.486C682.223 820.01 679.282 824.729 675.485 823.61C636.174 823.039 596.841 822.337 557.53 822.995C557.727 821.239 558.101 817.727 558.276 815.971Z"></path>
<path fill="#0A0A0C" d="M263.015 899.334C270.829 899.488 278.951 898.083 286.567 900.168C294.403 903.109 294.139 914.413 287.357 918.518C295.829 921.305 296.115 932.763 289.179 937.416C281.123 941.433 271.861 938.645 263.279 938.799C262.928 925.651 263.63 912.482 263.015 899.334ZM268.261 903.439C268.239 907.872 268.217 912.328 268.173 916.828C274.627 915.752 284.789 919.374 287.577 911.253C288.301 900.476 275.022 903.702 268.261 903.439ZM268.261 920.91C268.217 925.651 268.217 930.414 268.349 935.199C275.066 934.782 284.943 937.921 288.828 930.48C292.12 926.441 287.335 922.974 285.206 919.966C279.565 920.515 273.902 920.779 268.261 920.91Z"></path>
<path fill="#141416" d="M188.696 898.983C190.759 899.115 192.822 899.29 194.907 899.488C201.58 909.804 208.362 920.054 214.684 930.612C214.771 920.12 214.727 909.628 215.013 899.159C216.154 899.005 218.481 898.698 219.622 898.544C219.468 912.438 219.051 926.332 219.271 940.248C217.844 939.721 215.013 938.645 213.608 938.119C206.738 927.671 200.395 916.872 193.568 906.402C193.963 917.662 193.81 928.944 193.437 940.226C192.251 939.809 189.903 938.974 188.718 938.557C188.52 925.366 188.586 912.175 188.696 898.983Z"></path>
<path fill="#0F0F11" d="M238.082 898.763C239.508 898.873 242.384 899.115 243.81 899.246C248.639 913.009 255.553 926.003 259.658 940.028C252.085 941.104 252.414 932.609 250.263 927.802C244.183 928.132 238.082 928.175 231.98 927.868C230.004 932.499 229.916 939.216 223.946 940.687C225.373 925.959 233.538 912.745 238.082 898.763ZM233.582 923.764C238.543 923.72 243.503 923.72 248.464 923.873C246.071 917.354 243.788 910.814 241.089 904.426C238.411 910.792 236.062 917.311 233.582 923.764Z"></path>
<path fill="#161719" d="M795.042 901.419C797.105 901.156 799.19 900.937 801.275 900.739C801.122 903.373 800.968 906.051 800.836 908.729C802.878 908.948 806.982 909.365 809.045 909.563C807.597 912.943 803.953 912.635 800.858 913.052C800.836 920.384 800.924 927.737 801.078 935.112C803.207 935.968 809.726 934.914 807.377 939.106C804.129 939.567 800.858 939.918 797.588 940.138C793.747 931.687 796.468 922.183 795.92 913.272C789.225 914.391 789.862 907.104 796.139 907.894C795.854 906.27 795.305 903.022 795.042 901.419Z"></path>
<path fill="#FCFCFE" d="M233.582 923.764C236.062 917.311 238.411 910.792 241.088 904.427C243.788 910.814 246.071 917.355 248.463 923.873C243.503 923.72 238.542 923.72 233.582 923.764Z"></path>
<path fill="#FCFCFE" d="M564.247 913.909C570.656 908.531 579.721 916.828 578.448 924.027C579.326 930.129 574.124 936.516 567.781 935.967C558.979 933.048 558.013 919.681 564.247 913.909Z"></path>
<path fill="#040406" d="M484.549 904.075L489.136 905.195C492.231 915.467 492.78 926.771 490.673 937.285C489.553 942.465 484.966 935.507 482.003 938.711C473.706 943.408 462.688 935.704 463.456 926.442C462.666 920.471 464.883 914.874 468.548 910.309C474.804 907.653 481.235 908.004 486.92 911.867C486.327 909.914 485.142 906.007 484.549 904.075ZM469.58 932.126C472.06 937.241 479.786 938.821 483.803 934.563C488.917 930.349 486.832 923.083 487.249 917.377C484.483 914.984 481.981 910.616 477.723 911.692C467.955 912.131 465.782 924.971 469.58 932.126Z"></path>
<path fill="#040406" d="M452.174 909.036C453.447 909.08 455.949 909.167 457.222 909.211C456.937 919.132 456.937 929.075 456.871 939.018C455.598 939.304 453.052 939.853 451.779 940.116C452.437 929.756 452.437 919.396 452.174 909.036Z"></path>
<path fill="#0B0B0B" d="M525.352 909.212C526.516 909.146 528.82 908.97 529.962 908.882C529.896 910.309 529.764 913.184 529.72 914.611C534.044 907.565 545.326 905.546 549.343 913.865C550.857 922.183 550.374 930.722 550.769 939.172C549.43 939.128 546.753 939.041 545.436 938.997C544.909 930.941 546.775 922.535 544.448 914.765C543.109 913.909 540.431 912.175 539.092 911.319C535.646 913.492 531.344 915.313 530.137 919.615C529.566 926.068 529.962 932.587 529.852 939.106C528.645 939.15 526.23 939.282 525.023 939.348C525.286 929.295 525.221 919.242 525.352 909.212Z"></path>
<path fill="#18181A" d="M637.71 910.485C640.037 907.39 642.21 907.895 644.229 912.043C647.522 910.375 651.143 905.59 654.611 909.716C654.414 911.363 654.172 913.053 653.909 914.765C650.2 913.755 646.512 914.282 643.044 915.752C642.737 923.852 642.583 931.951 642.737 940.072C641.398 939.918 638.764 939.589 637.447 939.435C637.271 929.778 637.228 920.098 637.71 910.485Z"></path>
<path fill="#070709" d="M718.878 910.177C720.064 909.694 722.412 908.75 723.576 908.29C723.795 909.409 724.19 911.692 724.41 912.811C728.58 907.565 736.065 906.621 741.354 910.858C746.205 919.681 742.364 930.151 743.045 939.677C741.903 939.677 739.642 939.677 738.523 939.677C738.567 931.512 739.401 923.325 738.391 915.225C735.582 907.982 724.322 912.767 724.541 919.352C724.037 926.376 724.497 933.421 725.002 940.467C723.312 940.138 721.666 939.787 720.064 939.37C719.032 929.646 720.503 919.835 718.878 910.177Z"></path>
<path fill="#0D0D0F" d="M756.894 909.277C766.069 904.383 777.263 911.78 777.175 921.942C779.502 931.534 771.447 942.706 760.977 940.27C746.073 938.689 744.054 915.116 756.894 909.277ZM757.267 913.843C752.219 918.035 752.022 926.485 755.117 931.907C758.672 938.316 769.669 938.119 772.105 930.853C777.592 921.854 767.562 905.897 757.267 913.843Z"></path>
</svg>
